<svg xmlns="http://www.w3.org/2000/svg" viewBox="0 0 100 100" width="100" height="100">
  <!-- $>= -->
  <rect width="100" height="100" fill="#1a1a2e" rx="20"/>
  
  <!-- >A:0 (A5B:0) -->
  <g stroke="#4a90e2" stroke-width="1.5" fill="none" opacity="0.3">
    <!-- >@87>=B0;L=K5 ;8=88 -->
    <line x1="20" y1="20" x2="80" y2="20"/>
    <line x1="20" y1="35" x2="80" y2="35"/>
    <line x1="20" y1="50" x2="80" y2="50"/>
    <line x1="20" y1="65" x2="80" y2="65"/>
    <line x1="20" y1="80" x2="80" y2="80"/>
    
    <!-- 5@B8:0;L=K5 ;8=88 -->
    <line x1="20" y1="20" x2="20" y2="80"/>
    <line x1="35" y1="20" x2="35" y2="80"/>
    <line x1="50" y1="20" x2="50" y2="80"/>
    <line x1="65" y1="20" x2="65" y2="80"/>
    <line x1="80" y1="20" x2="80" y2="80"/>
  </g>
  
  <!-- >;KH:8 -->
  <circle cx="35" cy="35" r="4" fill="#ff6b6b"/>
  <circle cx="50" cy="35" r="4" fill="#ff6b6b"/>
  <circle cx="65" cy="35" r="4" fill="#ff6b6b"/>
  <circle cx="35" cy="50" r="4" fill="#ff6b6b"/>
  <circle cx="50" cy="50" r="6" fill="#4ecdc4"/>
  <circle cx="65" cy="50" r="4" fill="#ff6b6b"/>
  <circle cx="35" cy="65" r="4" fill="#ff6b6b"/>
  <circle cx="50" cy="65" r="4" fill="#ff6b6b"/>
  <circle cx="65" cy="65" r="4" fill="#ff6b6b"/>
</svg>
